<?xml version="1.0" encoding="UTF-8"?>
<svg width="64px" height="64px" viewBox="0 0 64 64" version="1.1" xmlns="http://www.w3.org/2000/svg" xmlns:xlink="http://www.w3.org/1999/xlink">
    <!-- Generator: Sketch 63.1 (92452) - https://sketch.com -->
    <title>faviconglasses-64</title>
    <desc>Created with Sketch.</desc>
    <defs>
        <radialGradient cx="50%" cy="0%" fx="50%" fy="0%" r="100%" gradientTransform="translate(0.500000,0.000000),scale(0.693903,1.000000),rotate(90.000000),translate(-0.500000,-0.000000)" id="radialGradient-1">
            <stop stop-color="#0F051B" offset="0%"></stop>
            <stop stop-color="#0F051B" stop-opacity="0.869755245" offset="100%"></stop>
        </radialGradient>
        <radialGradient cx="50%" cy="0%" fx="50%" fy="0%" r="100%" gradientTransform="translate(0.500000,0.000000),scale(0.593750,1.000000),rotate(90.000000),translate(-0.500000,-0.000000)" id="radialGradient-2">
            <stop stop-color="#0F051B" offset="0%"></stop>
            <stop stop-color="#0F051B" stop-opacity="0" offset="100%"></stop>
        </radialGradient>
    </defs>
    <g id="faviconglasses-64" stroke="none" stroke-width="1" fill="none" fill-rule="evenodd">
        <g id="myfavicon-copy" transform="translate(0.000000, 1.000000)">
            <path d="M39.2743761,2.84863794 C38.8882789,2.42325165 38.3730067,2.17748773 37.8381354,2.12255612 C37.3032615,2.06762423 36.7487882,2.20352641 36.2843344,2.54151911 C34.8562266,3.58080283 33.4248533,4.08344892 32,4.08344892 C30.5751495,4.08344892 29.143779,3.58080481 27.7156685,2.54152119 C27.2512142,2.20352228 26.6967385,2.06761715 26.1618625,2.12254956 C25.6269893,2.17748167 25.1117157,2.42324949 24.7256616,2.84859639 L19.5924842,8.50318421 C13.8720158,9.67791381 9.02062526,11.6372688 5.64940982,14.1136812 C2.59431115,16.3578818 0.75,19.022243 0.75,21.9231409 C0.75,26.4303173 5.00817455,32.653869 11.5606378,37.37919 C17.04696,41.3356614 24.1884461,44.25 32,44.25 C39.8115539,44.25 46.95304,41.3356614 52.4393622,37.37919 C58.9918255,32.653869 63.25,26.4303173 63.25,21.9231409 C63.25,19.022243 61.4056888,16.3578818 58.3505902,14.1136812 C54.9793747,11.6372688 50.1279842,9.67791381 44.4075158,8.50318421 L39.2743761,2.84863794 Z" id="Combined-Shape" stroke="#0F051B" stroke-width="1.5" fill="url(#radialGradient-1)"></path>
            <path d="M32,7.75 C23.2906774,7.75 15.4028827,9.41789419 9.69437561,12.1294351 C6.85047416,13.4802882 4.55272982,15.0864314 2.98855933,16.8801462 C1.55944378,18.5189865 0.75,20.3110415 0.75,22.2 C0.75,26.6512289 5.00889386,32.7951881 11.557154,37.4608234 C17.0444113,41.3704943 24.1872181,44.25 32,44.25 C39.8127819,44.25 46.9555887,41.3704943 52.442846,37.4608234 C58.9911061,32.7951881 63.25,26.6512289 63.25,22.2 C63.25,20.3110415 62.4405562,18.5189865 61.0114407,16.8801462 C59.4472702,15.0864314 57.1495258,13.4802882 54.3056244,12.1294351 C48.5971173,9.41789419 40.7093226,7.75 32,7.75 Z" id="Oval-Copy" stroke="#0F051B" stroke-width="1.5" fill="url(#radialGradient-2)"></path>
            <path d="M32.0134566,17.7499989 C27.9753679,17.75 21.2712871,17.9525545 18.4153915,20.6847902 C15.4779473,23.4950436 15.6897011,28.4606879 15.7868401,33.2013222 C15.8051784,34.096278 15.8233568,34.9860726 15.8233568,35.8571429 C15.8233568,40.6578548 18.3114634,46.3894666 21.4869234,51.1021893 C24.9168379,56.1925497 29.1710796,60.25 32.0147603,60.25 C34.8584411,60.25 39.1126828,56.1925497 42.5425973,51.1021893 C45.7180573,46.3894666 48.2061639,40.6578548 48.2061639,35.8571429 C48.2061639,35.1244715 48.2168695,34.3723208 48.2277387,33.610571 C48.2961595,28.8153986 48.476637,23.5523619 45.6018239,20.6727443 C42.7818742,17.8480816 36.4857782,17.7577734 32.0134566,17.7499989 Z" id="Oval" stroke="#0F051B" stroke-width="1.5" fill="#EAEAEA"></path>
            <path d="M28,39 L18,39 C15.790861,39 14,37.4329966 14,35.5 L14,28.5 C14,26.5670034 15.790861,25 18,25 L28,25 C30.209139,25 32,26.5670034 32,28.5 C32,26.5670034 33.790861,25 36,25 L46,25 C48.209139,25 50,26.5670034 50,28.5 L50,35.5 C50,37.4329966 48.209139,39 46,39 L36,39 C33.790861,39 33,37 32,35.5 C31,37 30.209139,39 28,39 Z M28,27 L18,27 C16.9743283,27 16.1289857,27.6434003 16.0134555,28.4722981 L16,28.6666667 L16,35.3333333 C16,36.1880597 16.7720804,36.8925119 17.7667577,36.9887871 L18,37 L28,37 C29.0256717,37 29.8710143,36.3565997 29.9865445,35.5277019 L30,35.3333333 L30,28.6666667 C30,27.7461921 29.1045695,27 28,27 Z M46,27 L36,27 C34.9743283,27 34.1289857,27.6434003 34.0134555,28.4722981 L34,28.6666667 L34,35.3333333 C34,36.1880597 34.7720804,36.8925119 35.7667577,36.9887871 L36,37 L46,37 C47.0256717,37 47.8710143,36.3565997 47.9865445,35.5277019 L48,35.3333333 L48,28.6666667 C48,27.7461921 47.1045695,27 46,27 Z" id="Shape" fill="#7500CF"></path>
        </g>
    </g>
</svg>