<?xml version="1.0" encoding="UTF-8"?>
<svg width="64px" height="64px" viewBox="0 0 64 64" version="1.1" xmlns="http://www.w3.org/2000/svg" xmlns:xlink="http://www.w3.org/1999/xlink">
    <!-- Generator: Sketch 63.1 (92452) - https://sketch.com -->
    <title>favicon-blank</title>
    <desc>Created with Sketch.</desc>
    <defs>
        <radialGradient cx="50%" cy="0%" fx="50%" fy="0%" r="100%" gradientTransform="translate(0.500000,0.000000),scale(0.630705,1.000000),rotate(90.000000),translate(-0.500000,-0.000000)" id="radialGradient-1">
            <stop stop-color="#0F051B" offset="0%"></stop>
            <stop stop-color="#0F051B" stop-opacity="0.869755245" offset="100%"></stop>
        </radialGradient>
        <radialGradient cx="50%" cy="0%" fx="50%" fy="0%" r="100%" gradientTransform="translate(0.500000,0.000000),scale(0.546875,1.000000),rotate(90.000000),translate(-0.500000,-0.000000)" id="radialGradient-2">
            <stop stop-color="#0F051B" offset="0%"></stop>
            <stop stop-color="#0F051B" stop-opacity="0" offset="100%"></stop>
        </radialGradient>
    </defs>
    <g id="favicon-blank" stroke="none" stroke-width="1" fill="none" fill-rule="evenodd">
        <g id="myfavicon" transform="translate(0.000000, 4.000000)" stroke="#0F051B" stroke-width="2">
            <path d="M38.4428444,1.78873361 C38.264422,1.60858849 38.0327802,1.50947671 37.7957918,1.49439802 C37.5588081,1.47931964 37.3164782,1.54827145 37.1167258,1.70430412 C35.4111417,3.03654159 33.6998863,3.67416193 32,3.67416193 C30.3001095,3.67416193 28.5888496,3.03653837 26.8832745,1.70430433 C26.6835174,1.54827302 26.4411835,1.47932169 26.2041967,1.4944016 C25.9672114,1.50948142 25.7355731,1.6085916 25.5572056,1.78868311 L19.6928688,7.70877672 C13.9771358,8.7776495 9.12851367,10.563837 5.76382673,12.8288331 C2.82639556,14.8062147 1,17.1377061 1,19.7098051 C1,23.7764205 5.24888749,29.351289 11.673293,33.5969567 C17.1293764,37.2026938 24.2319151,39.8575 32,39.8575 C39.7680849,39.8575 46.8706236,37.2026938 52.326707,33.5969567 C58.7511125,29.351289 63,23.7764205 63,19.7098051 C63,17.1377061 61.1736044,14.8062147 58.2361733,12.8288331 C54.8714863,10.563837 50.0228642,8.7776495 44.3071312,7.70877672 L38.4428444,1.78873361 Z" id="Combined-Shape" fill="url(#radialGradient-1)"></path>
            <path d="M32,6.8575 C23.3217476,6.8575 15.4616844,8.3855388 9.77340184,10.8741624 C6.9653404,12.1026893 4.69423084,13.5595287 3.14946342,15.1911405 C1.78845319,16.6286646 1,18.1959384 1,19.8575 C1,23.8943845 5.24973815,29.4263735 11.6706044,33.640067 C17.1274094,37.2210953 24.230941,39.8575 32,39.8575 C39.769059,39.8575 46.8725906,37.2210953 52.3293956,33.640067 C58.7502618,29.4263735 63,23.8943845 63,19.8575 C63,18.1959384 62.2115468,16.6286646 60.8505366,15.1911405 C59.3057692,13.5595287 57.0346596,12.1026893 54.2265982,10.8741624 C48.5383156,8.3855388 40.6782524,6.8575 32,6.8575 Z" id="Oval-Copy" fill="url(#radialGradient-2)"></path>
            <path d="M32.0147603,17.6675 C28.0283238,17.6675 21.3967117,17.8290169 18.5741573,20.4270184 C15.690327,23.0814209 15.9417637,27.7874441 16.0367708,32.2483184 C16.0551558,33.1115513 16.0733568,33.9698062 16.0733568,34.81 C16.0733568,39.3776233 18.5454815,44.8254197 21.6840409,49.306852 C25.0497355,54.1126022 29.2155059,58 32.0147603,58 C34.8140148,58 38.9797852,54.1126022 42.3454798,49.306852 C45.4840392,44.8254197 47.9561639,39.3776233 47.9561639,34.81 C47.9561639,34.1036166 47.9668804,33.3784526 47.9777723,32.6440339 C48.0447887,28.1252825 48.2640535,23.1341466 45.4386758,20.4113013 C42.5848701,17.6610596 36.1238898,17.6675 32.0147603,17.6675 Z" id="Oval" fill="#EAEAEA"></path>
        </g>
    </g>
</svg>