<?xml version="1.0" encoding="UTF-8"?>
<svg width="32px" height="32px" viewBox="0 0 32 32" version="1.1" xmlns="http://www.w3.org/2000/svg" xmlns:xlink="http://www.w3.org/1999/xlink">
    <!-- Generator: Sketch 63.1 (92452) - https://sketch.com -->
    <title>faviconglasses-32</title>
    <desc>Created with Sketch.</desc>
    <defs>
        <radialGradient cx="50%" cy="0%" fx="50%" fy="0%" r="100%" gradientTransform="translate(0.500000,0.000000),scale(0.662975,1.000000),rotate(90.000000),translate(-0.500000,-0.000000)" id="radialGradient-1">
            <stop stop-color="#0F051B" offset="0%"></stop>
            <stop stop-color="#0F051B" stop-opacity="0.869755245" offset="100%"></stop>
        </radialGradient>
        <radialGradient cx="50%" cy="0%" fx="50%" fy="0%" r="100%" gradientTransform="translate(0.500000,0.000000),scale(0.593750,1.000000),rotate(90.000000),translate(-0.500000,-0.000000)" id="radialGradient-2">
            <stop stop-color="#0F051B" offset="0%"></stop>
            <stop stop-color="#0F051B" stop-opacity="0" offset="100%"></stop>
        </radialGradient>
    </defs>
    <g id="faviconglasses-32" stroke="none" stroke-width="1" fill="none" fill-rule="evenodd">
        <g id="myfavicon-copy" transform="translate(0.000000, 1.000000)">
            <path d="M19.5985223,1.26397857 C19.365414,1.00951927 19.0606509,0.851029882 18.7384428,0.797452105 C18.4162347,0.743874327 18.0765815,0.795208163 17.7737714,0.960480807 L17.1977084,1.27489393 C16.4512115,1.68232924 15.5487885,1.68232924 14.8022916,1.27489393 L14.2262286,0.960480807 C13.9234185,0.795208163 13.5837653,0.743874327 13.2615572,0.797452105 C12.9393491,0.851029882 12.634586,1.00951927 12.401556,1.26389308 L9.85881829,4.03823524 C7.00193514,4.61525728 4.57811443,5.58053674 2.89667084,6.80436705 C1.41066553,7.88594858 0.5,9.16620193 0.5,10.5680467 C0.5,12.7744541 2.62054952,15.8106717 5.85164999,18.1192836 C8.57566445,20.065584 12.1213239,21.5 16,21.5 C19.8786761,21.5 23.4243356,20.065584 26.14835,18.1192836 C29.3794505,15.8106717 31.5,12.7744541 31.5,10.5680467 C31.5,9.16620193 30.5893345,7.88594858 29.1033292,6.80436705 C27.4218856,5.58053674 24.9980649,4.61525728 22.1411817,4.03823524 L19.5985223,1.26397857 Z" id="Combined-Shape" stroke="#0F051B" fill="url(#radialGradient-1)"></path>
            <path d="M16,4.5 C11.6665443,4.5 7.7413478,5.32837647 4.90081991,6.67762722 C3.49661703,7.34462358 2.36094398,8.13641519 1.58849035,9.02222751 C0.896002383,9.81633908 0.5,10.6838355 0.5,11.6 C0.5,13.7999507 2.62066371,16.8269152 5.85111135,19.1286091 C8.57527039,21.0695724 12.1211337,22.5 16,22.5 C19.8788663,22.5 23.4247296,21.0695724 26.1488887,19.1286091 C29.3793363,16.8269152 31.5,13.7999507 31.5,11.6 C31.5,10.6838355 31.1039976,9.81633908 30.4115097,9.02222751 C29.639056,8.13641519 28.503383,7.34462358 27.0991801,6.67762722 C24.2586522,5.32837647 20.3334557,4.5 16,4.5 Z" id="Oval-Copy" stroke="#0F051B" fill="url(#radialGradient-2)"></path>
            <path d="M16.0060449,8.49999796 C13.9892913,8.5 10.630875,8.58481318 9.20163452,9.93490318 C7.73665685,11.3187513 7.86162718,13.7703341 7.90993204,16.0979694 C7.91923727,16.5463543 7.92845178,16.9921535 7.92845178,17.4285714 C7.92845178,19.8070683 9.18148989,22.6447893 10.7742729,24.9788031 C12.4792227,27.4771827 14.5886201,29.5 16.0074745,29.5 C17.426329,29.5 19.5357264,27.4771827 21.2406762,24.9788031 C22.8334592,22.6447893 24.0864973,19.8070683 24.0864973,17.4285714 C24.0864973,17.0616244 24.0919229,16.6849214 24.0974362,16.3034109 C24.1315018,13.9461193 24.2401143,11.3462274 22.8050632,9.92692757 C21.4132252,8.55036659 18.3235013,8.5066244 16.0060449,8.49999796 Z" id="Oval" stroke="#0F051B" fill="#EAEAEA"></path>
            <path d="M14,19 L9,19 C7.8954305,19 7,18.2164983 7,17.25 L7,13.75 C7,12.7835017 7.8954305,12 9,12 L14,12 C15.1045695,12 16,12.7835017 16,13.75 C16,12.7835017 16.8954305,12 18,12 L23,12 C24.1045695,12 25,12.7835017 25,13.75 L25,17.25 C25,18.2164983 24.1045695,19 23,19 L18,19 C16.8954305,19 16.5,18 16,17.25 C15.5,18 15.1045695,19 14,19 Z M14,13 L9,13 C8.48716416,13 8.06449284,13.3217002 8.00672773,13.7361491 L8,13.8333333 L8,17.1666667 C8,17.5940299 8.38604019,17.946256 8.88337887,17.9943936 L9,18 L14,18 C14.5128358,18 14.9355072,17.6782998 14.9932723,17.2638509 L15,17.1666667 L15,13.8333333 C15,13.373096 14.5522847,13 14,13 Z M23,13 L18,13 C17.4871642,13 17.0644928,13.3217002 17.0067277,13.7361491 L17,13.8333333 L17,17.1666667 C17,17.5940299 17.3860402,17.946256 17.8833789,17.9943936 L18,18 L23,18 C23.5128358,18 23.9355072,17.6782998 23.9932723,17.2638509 L24,17.1666667 L24,13.8333333 C24,13.373096 23.5522847,13 23,13 Z" id="Shape" fill="#7500CF"></path>
        </g>
    </g>
</svg>