<?xml version="1.0" encoding="UTF-8"?>
<svg width="16px" height="16px" viewBox="0 0 16 16" version="1.1" xmlns="http://www.w3.org/2000/svg" xmlns:xlink="http://www.w3.org/1999/xlink">
    <!-- Generator: Sketch 63.1 (92452) - https://sketch.com -->
    <title>favicon-kn-dpr16</title>
    <desc>Created with Sketch.</desc>
    <defs>
        <radialGradient cx="50%" cy="0%" fx="50%" fy="0%" r="100%" gradientTransform="translate(0.500000,0.000000),scale(0.609153,1.000000),rotate(90.000000),translate(-0.500000,-0.000000)" id="radialGradient-1">
            <stop stop-color="#0F051B" offset="0%"></stop>
            <stop stop-color="#0F051B" stop-opacity="0.869755245" offset="100%"></stop>
        </radialGradient>
        <radialGradient cx="50%" cy="0%" fx="50%" fy="0%" r="100%" gradientTransform="translate(0.500000,0.000000),scale(0.545455,1.000000),rotate(90.000000),translate(-0.500000,-0.000000)" id="radialGradient-2">
            <stop stop-color="#0F051B" offset="0%"></stop>
            <stop stop-color="#0F051B" stop-opacity="0" offset="100%"></stop>
        </radialGradient>
    </defs>
    <g id="favicon-kn-dpr16" stroke="none" stroke-width="1" fill="none" fill-rule="evenodd">
        <g id="myfavicon" transform="translate(2.500000, 1.000000)" stroke="#0F051B" stroke-width="0.5">
            <path d="M6.91579497,0.470034677 C6.64799614,0.202236483 6.21516476,0.186025921 4.08452959,0.469710754 L3.41930334,1.13241995 C2.43959056,1.31180288 1.60798621,1.61277956 1.03261678,1.99661767 C0.556966688,2.31393141 0.25,2.68488903 0.25,3.10068696 C0.25,3.77664618 0.975671899,4.69534535 2.04849959,5.39755984 C2.97494941,6.00396336 4.18092056,6.45068696 5.5,6.45068696 C6.81907944,6.45068696 8.02505059,6.00396336 8.95150041,5.39755984 C10.0243281,4.69534535 10.75,3.77664618 10.75,3.10068696 C10.75,2.68488903 10.4430333,2.31393141 9.96738322,1.99661767 C9.3920138,1.61277957 8.56040948,1.3118029 7.58069672,1.13241996 L6.91579497,0.470034677 Z" id="Combined-Shape" fill="url(#radialGradient-1)"></path>
            <path d="M5.5,0.950686956 C4.02070509,0.950686956 2.68061437,1.20961692 1.71089882,1.63276553 C1.23938037,1.83851903 0.857300254,2.08164116 0.597822572,2.35499441 C0.379764332,2.58471332 0.25,2.83435299 0.25,3.10068696 C0.25,3.77664618 0.975671899,4.69534535 2.04849959,5.39755984 C2.97494941,6.00396336 4.18092056,6.45068696 5.5,6.45068696 C6.81907944,6.45068696 8.02505059,6.00396336 8.95150041,5.39755984 C10.0243281,4.69534535 10.75,3.77664618 10.75,3.10068696 C10.75,2.83435299 10.6202357,2.58471332 10.4021774,2.35499441 C10.1426997,2.08164116 9.76061963,1.83851903 9.28910118,1.63276553 C8.31938563,1.20961692 6.97929491,0.950686956 5.5,0.950686956 Z" id="Oval-Copy" fill="url(#radialGradient-2)"></path>
            <path d="M5.5,2.95068696 C4.80817505,2.95068696 3.65374012,2.96844721 3.16295606,3.39027947 C2.66181095,3.82101713 2.72776432,4.59840845 2.74994892,5.69563328 C2.75,6.43961004 3.18258508,7.31871665 3.72557959,8.04270934 C4.30367652,8.81350524 5.01725072,9.45068696 5.5,9.45068696 C5.98274928,9.45068696 6.69632348,8.81350524 7.27442041,8.04270934 C7.821931,7.31269522 8.25019771,6.42507801 8.25380837,5.34414506 C8.26522188,4.62427157 8.31626441,3.82162164 7.83276814,3.38651888 C7.33684225,2.94023059 6.21246816,2.95068696 5.5,2.95068696 Z" id="Oval" fill="#EAEAEA"></path>
        </g>
        <text id="K-N" font-family="RedHatDisplay-Medium, Red Hat Display" font-size="8" font-weight="400" fill="#490082">
            <tspan x="0.788" y="16">K  N</tspan>
        </text>
    </g>
</svg>