<?xml version="1.0" encoding="UTF-8"?>
<svg width="22px" height="21px" viewBox="0 0 22 21" version="1.1" xmlns="http://www.w3.org/2000/svg" xmlns:xlink="http://www.w3.org/1999/xlink">
    <!-- Generator: Sketch 63.1 (92452) - https://sketch.com -->
    <title>myfavicon</title>
    <desc>Created with Sketch.</desc>
    <defs>
        <radialGradient cx="50%" cy="0%" fx="50%" fy="0%" r="100%" gradientTransform="translate(0.500000,0.000000),scale(0.609153,1.000000),rotate(90.000000),translate(-0.500000,-0.000000)" id="radialGradient-1">
            <stop stop-color="#0F051B" offset="0%"></stop>
            <stop stop-color="#0F051B" stop-opacity="0.869755245" offset="100%"></stop>
        </radialGradient>
        <radialGradient cx="50%" cy="0%" fx="50%" fy="0%" r="100%" gradientTransform="translate(0.500000,0.000000),scale(0.545455,1.000000),rotate(90.000000),translate(-0.500000,-0.000000)" id="radialGradient-2">
            <stop stop-color="#0F051B" offset="0%"></stop>
            <stop stop-color="#0F051B" stop-opacity="0" offset="100%"></stop>
        </radialGradient>
    </defs>
    <g id="Page-1" stroke="none" stroke-width="1" fill="none" fill-rule="evenodd">
        <g id="favicon-glasse32" transform="translate(-5.000000, -1.000000)">
            <g id="myfavicon" transform="translate(5.000000, 2.000000)">
                <path d="M12.9848302,0.256643322 C12.8718149,0.246228147 12.7552668,0.274148276 12.6559644,0.342318699 C12.1039758,0.721253887 11.5502568,0.901373911 11,0.901373911 C10.4497409,0.901373911 9.89601966,0.721252406 9.34402949,0.342314523 C9.24472028,0.274139359 9.12816406,0.246215725 9.01514254,0.256634525 C8.90213414,0.267052116 8.79266031,0.315804367 8.70750097,0.400979718 L6.84437637,2.26378475 C4.88329152,2.62226469 3.21854384,3.22428757 2.06671829,3.99224513 C1.11455503,4.62708169 0.5,5.36933682 0.5,6.20137391 C0.5,7.55329237 1.9513438,9.3906907 4.09699918,10.7951197 C5.94989882,12.0079267 8.36184111,12.9013739 11,12.9013739 C13.6381589,12.9013739 16.0501012,12.0079267 17.9030008,10.7951197 C20.0486562,9.3906907 21.5,7.55329237 21.5,6.20137391 C21.5,5.36933682 20.885445,4.62708169 19.9332817,3.99224513 C18.7814562,3.22428757 17.1167085,2.62226469 15.1556236,2.26378475 L12.9848302,0.256643322 Z" id="Combined-Shape" stroke="#0F051B" fill="url(#radialGradient-1)"></path>
                <path d="M11,1.90137391 C8.04141018,1.90137391 5.36122875,2.41923384 3.42179764,3.26553105 C2.47876073,3.67703806 1.71460051,4.16328232 1.19564514,4.70998883 C0.759528663,5.16942664 0.5,5.66870598 0.5,6.20137391 C0.5,7.55329237 1.9513438,9.3906907 4.09699918,10.7951197 C5.94989882,12.0079267 8.36184111,12.9013739 11,12.9013739 C13.6381589,12.9013739 16.0501012,12.0079267 17.9030008,10.7951197 C20.0486562,9.3906907 21.5,7.55329237 21.5,6.20137391 C21.5,5.66870598 21.2404713,5.16942664 20.8043549,4.70998883 C20.2853995,4.16328232 19.5212393,3.67703806 18.5782024,3.26553105 C16.6387713,2.41923384 13.9585898,1.90137391 11,1.90137391 Z" id="Oval-Copy" stroke="#0F051B" fill="url(#radialGradient-2)"></path>
                <path d="M11,5.90137391 C9.61635009,5.90137391 7.30748024,5.93689443 6.32591213,6.78055894 C5.34099562,7.62710142 5.45481038,9.1387969 5.48699294,10.5498279 C5.49353771,10.836781 5.5,11.1220795 5.5,11.4013739 C5.5,12.8792201 6.36517016,14.6374333 7.45115918,16.0854187 C8.60735305,17.6270105 10.0345014,18.9013739 11,18.9013739 C11.9654986,18.9013739 13.392647,17.6270105 14.5488408,16.0854187 C15.6348298,14.6374333 16.5,12.8792201 16.5,11.4013739 C16.5,11.1667722 16.5038031,10.925933 16.507677,10.6820202 C16.5304438,9.24854315 16.6325288,7.64324329 15.6655363,6.77303776 C14.6736845,5.88046118 12.4249363,5.90137391 11,5.90137391 Z" id="Oval" stroke="#0F051B" fill="#EAEAEA"></path>
                <g id="glasses" transform="translate(5.200000, 8.000000)" stroke="#7500CF">
                    <path d="M4,0.5 L2,0.5 C1.58578644,0.5 1.21078644,0.667893219 0.939339828,0.939339828 C0.667893219,1.21078644 0.5,1.58578644 0.5,2 L0.5,3 C0.5,3.41421356 0.667893219,3.78921356 0.939339828,4.06066017 C1.21078644,4.33210678 1.58578644,4.5 2,4.5 L4,4.5 C4.41421356,4.5 4.78921356,4.33210678 5.06066017,4.06066017 C5.33210678,3.78921356 5.5,3.41421356 5.5,3 L5.5,2 C5.5,1.58578644 5.33210678,1.21078644 5.06066017,0.939339828 C4.78921356,0.667893219 4.41421356,0.5 4,0.5 Z" id="Rectangle"></path>
                    <path d="M9.6,0.5 L7.6,0.5 C7.18578644,0.5 6.81078644,0.667893219 6.53933983,0.939339828 C6.26789322,1.21078644 6.1,1.58578644 6.1,2 L6.1,3 C6.1,3.41421356 6.26789322,3.78921356 6.53933983,4.06066017 C6.81078644,4.33210678 7.18578644,4.5 7.6,4.5 L9.6,4.5 C10.0142136,4.5 10.3892136,4.33210678 10.6606602,4.06066017 C10.9321068,3.78921356 11.1,3.41421356 11.1,3 L11.1,2 C11.1,1.58578644 10.9321068,1.21078644 10.6606602,0.939339828 C10.3892136,0.667893219 10.0142136,0.5 9.6,0.5 Z" id="Rectangle-Copy"></path>
                </g>
            </g>
        </g>
    </g>
</svg>