<?xml version="1.0" encoding="UTF-8"?>
<svg width="64px" height="64px" viewBox="0 0 64 64" version="1.1" xmlns="http://www.w3.org/2000/svg" xmlns:xlink="http://www.w3.org/1999/xlink">
    <!-- Generator: Sketch 63.1 (92452) - https://sketch.com -->
    <title>favicon-glasses</title>
    <desc>Created with Sketch.</desc>
    <defs>
        <radialGradient cx="50%" cy="0%" fx="50%" fy="0%" r="100%" gradientTransform="translate(0.500000,0.000000),scale(0.630705,1.000000),rotate(90.000000),translate(-0.500000,-0.000000)" id="radialGradient-1">
            <stop stop-color="#0F051B" offset="0%"></stop>
            <stop stop-color="#0F051B" stop-opacity="0.869755245" offset="100%"></stop>
        </radialGradient>
        <radialGradient cx="50%" cy="0%" fx="50%" fy="0%" r="100%" gradientTransform="translate(0.500000,0.000000),scale(0.546875,1.000000),rotate(90.000000),translate(-0.500000,-0.000000)" id="radialGradient-2">
            <stop stop-color="#0F051B" offset="0%"></stop>
            <stop stop-color="#0F051B" stop-opacity="0" offset="100%"></stop>
        </radialGradient>
    </defs>
    <g id="favicon-glasses" stroke="none" stroke-width="1" fill="none" fill-rule="evenodd">
        <g id="myfavicon" transform="translate(0.000000, 4.000000)" stroke-width="2">
            <path d="M38.4428444,1.78873361 C38.264422,1.60858849 38.0327802,1.50947671 37.7957918,1.49439802 C37.5588081,1.47931964 37.3164782,1.54827145 37.1167258,1.70430412 C35.4111417,3.03654159 33.6998863,3.67416193 32,3.67416193 C30.3001095,3.67416193 28.5888496,3.03653837 26.8832745,1.70430433 C26.6835174,1.54827302 26.4411835,1.47932169 26.2041967,1.4944016 C25.9672114,1.50948142 25.7355731,1.6085916 25.5572056,1.78868311 L19.6928688,7.70877672 C13.9771358,8.7776495 9.12851367,10.563837 5.76382673,12.8288331 C2.82639556,14.8062147 1,17.1377061 1,19.7098051 C1,23.7764205 5.24888749,29.351289 11.673293,33.5969567 C17.1293764,37.2026938 24.2319151,39.8575 32,39.8575 C39.7680849,39.8575 46.8706236,37.2026938 52.326707,33.5969567 C58.7511125,29.351289 63,23.7764205 63,19.7098051 C63,17.1377061 61.1736044,14.8062147 58.2361733,12.8288331 C54.8714863,10.563837 50.0228642,8.7776495 44.3071312,7.70877672 L38.4428444,1.78873361 Z" id="hat-shape" stroke="#0F051B" fill="url(#radialGradient-1)"></path>
            <path d="M32,6.8575 C23.3217476,6.8575 15.4616844,8.3855388 9.77340184,10.8741624 C6.9653404,12.1026893 4.69423084,13.5595287 3.14946342,15.1911405 C1.78845319,16.6286646 1,18.1959384 1,19.8575 C1,23.8943845 5.24973815,29.4263735 11.6706044,33.640067 C17.1274094,37.2210953 24.230941,39.8575 32,39.8575 C39.769059,39.8575 46.8725906,37.2210953 52.3293956,33.640067 C58.7502618,29.4263735 63,23.8943845 63,19.8575 C63,18.1959384 62.2115468,16.6286646 60.8505366,15.1911405 C59.3057692,13.5595287 57.0346596,12.1026893 54.2265982,10.8741624 C48.5383156,8.3855388 40.6782524,6.8575 32,6.8575 Z" id="rim-boarder" stroke="#0F051B" fill="url(#radialGradient-2)"></path>
            <g id="Face" transform="translate(14.000000, 16.667500)">
                <path d="M18.0130416,0.999998523 C14.0283238,1 7.39671168,1.16151687 4.57415726,3.75951844 C1.69032701,6.41392094 1.94176369,11.1199441 2.03677082,15.5808184 C2.05515584,16.4440513 2.0733568,17.3023062 2.0733568,18.1425 C2.0733568,22.7101233 4.54548146,28.1579197 7.68404093,32.639352 C11.0497355,37.4451022 15.2155059,41.3325 18.0147603,41.3325 C20.8140148,41.3325 24.9797852,37.4451022 28.3454798,32.639352 C31.4840392,28.1579197 33.9561639,22.7101233 33.9561639,18.1425 C33.9561639,17.4361166 33.9668804,16.7109526 33.9777723,15.9765339 C34.0447887,11.4577825 34.2640535,6.46664661 31.4386758,3.74380132 C28.6541655,1.06034033 22.4316744,1.00759324 18.0130416,0.999998523 Z" id="Oval" stroke="#0F051B" fill="#EAEAEA"></path>
                <path d="M18,14.3325 L20,14.3325 L20,16.3325 C20,17.7200318 20.5272364,18.978453 21.3867414,19.8885172 C22.2261475,20.7773001 23.3842298,21.3325 24.6666667,21.3325 L30.3333333,21.3325 C31.6157702,21.3325 32.7738525,20.7773001 33.6132586,19.8885172 C34.4727636,18.978453 35,17.7200318 35,16.3325 L35,13.3325 C35,11.9449682 34.4727636,10.686547 33.6132586,9.77648285 C32.7738525,8.88769994 31.6157702,8.3325 30.3333333,8.3325 L24.6666667,8.3325 C23.3842298,8.3325 22.2261475,8.88769994 21.3867414,9.77648285 C20.3246053,10.9010975 19.7698721,12.5576832 20.0904654,14.3325 L18,14.3325 Z M18,14.3325 L15.9095346,14.3325 C16.2301279,12.5576832 15.6753947,10.9010975 14.6132586,9.77648285 C13.7738525,8.88769994 12.6157702,8.3325 11.3333333,8.3325 L5.66666667,8.3325 C4.38422983,8.3325 3.22614747,8.88769994 2.38674139,9.77648285 C1.52723636,10.686547 1,11.9449682 1,13.3325 L1,16.3325 C1,17.7200318 1.52723636,18.978453 2.38674139,19.8885172 C3.22614747,20.7773001 4.38422983,21.3325 5.66666667,21.3325 L11.3333333,21.3325 C12.6157702,21.3325 13.7738525,20.7773001 14.6132586,19.8885172 C15.4727636,18.978453 16,17.7200318 16,16.3325 L16,14.3325 L18,14.3325 Z" id="Glasses" stroke="#7500CF"></path>
            </g>
        </g>
    </g>
</svg>