<svg width="215" height="48" viewBox="0 0 215 48" fill="none" xmlns="http://www.w3.org/2000/svg">
<path d="M2 41.6336V20.5129H4.30522V30.5302L15.1427 20.5129H18.1665L6.79007 30.8621L18.406 41.6336H15.1727L4.30522 31.4957V41.6336H2Z" fill="#EAEAEA"/>
<path d="M23.999 41.9052C22.3624 41.9052 21.0252 41.4828 19.9873 40.6379C18.9694 39.7931 18.4605 38.6968 18.4605 37.3491C18.4605 35.9411 18.9994 34.8247 20.0771 34C21.1549 33.1552 22.6119 32.7328 24.4481 32.7328C25.2464 32.7328 26.0148 32.8233 26.7533 33.0043C27.5117 33.1853 28.2103 33.4368 28.8489 33.7586V31.7672C28.8489 30.5603 28.5096 29.6552 27.831 29.0517C27.1525 28.4282 26.1645 28.1164 24.8672 28.1164C24.1287 28.1164 23.3803 28.227 22.6218 28.4483C21.8834 28.6494 21.0651 28.9813 20.1669 29.444L19.3287 27.7241C20.4064 27.2011 21.4044 26.819 22.3225 26.5776C23.2406 26.3362 24.1587 26.2155 25.0768 26.2155C26.9728 26.2155 28.4298 26.6681 29.4477 27.5733C30.4855 28.4784 31.0045 29.7759 31.0045 31.4655V41.6336H28.8489V40.1552C28.1703 40.7385 27.4219 41.181 26.6036 41.4828C25.8052 41.7644 24.937 41.9052 23.999 41.9052ZM20.5861 37.2888C20.5861 38.1336 20.9353 38.8276 21.6339 39.3707C22.3524 39.8937 23.2705 40.1552 24.3882 40.1552C25.2863 40.1552 26.1046 40.0144 26.8431 39.7328C27.5816 39.4511 28.2502 39.0086 28.8489 38.4052V35.569C28.2302 35.1465 27.5616 34.8448 26.8431 34.6638C26.1445 34.4626 25.3662 34.3621 24.5079 34.3621C23.3104 34.3621 22.3524 34.6336 21.6339 35.1767C20.9353 35.6997 20.5861 36.4037 20.5861 37.2888Z" fill="#EAEAEA"/>
<path d="M34.7055 41.6336V26.5172H36.9209V28.6595C37.36 27.875 37.9388 27.2716 38.6573 26.8491C39.3759 26.4066 40.1942 26.1853 41.1123 26.1853C41.3917 26.1853 41.6412 26.2055 41.8607 26.2457C42.0802 26.2658 42.2998 26.3161 42.5193 26.3966V28.4483C42.2599 28.3678 42.0004 28.3075 41.741 28.2672C41.4815 28.2069 41.222 28.1767 40.9626 28.1767C40.0445 28.1767 39.2361 28.4483 38.5376 28.9914C37.839 29.5144 37.3002 30.2787 36.9209 31.2845V41.6336H34.7055Z" fill="#EAEAEA"/>
<path d="M46.1629 23.6207C45.7637 23.6207 45.4144 23.4698 45.115 23.1681C44.8157 22.8664 44.666 22.5144 44.666 22.1121C44.666 21.6897 44.8157 21.3376 45.115 21.056C45.4144 20.7543 45.7637 20.6034 46.1629 20.6034C46.582 20.6034 46.9313 20.7543 47.2107 21.056C47.5101 21.3376 47.6598 21.6897 47.6598 22.1121C47.6598 22.5144 47.5101 22.8664 47.2107 23.1681C46.9313 23.4698 46.582 23.6207 46.1629 23.6207ZM47.2706 26.5172V41.6336H45.0552V26.5172H47.2706Z" fill="#EAEAEA"/>
<path d="M68.2582 40.125L60.0552 23.1983V41.6336H57.8997V20.5129H61.133L68.2882 35.5086L75.4134 20.5129H78.6467V41.6336H76.4612V23.1681L68.2582 40.125Z" fill="#EAEAEA"/>
<path d="M89.8339 39.8836C90.6322 39.8836 91.4006 39.7227 92.1391 39.4009C92.8776 39.079 93.5661 38.6063 94.2048 37.9828L95.582 39.4914C94.7836 40.2557 93.8855 40.8491 92.8875 41.2715C91.8896 41.694 90.8518 41.9052 89.774 41.9052C88.7162 41.9052 87.7183 41.704 86.7802 41.3017C85.8422 40.8994 85.0338 40.3463 84.3552 39.6422C83.6766 38.9382 83.1378 38.1034 82.7386 37.1379C82.3394 36.1724 82.1398 35.1466 82.1398 34.0603C82.1398 32.9741 82.3394 31.9583 82.7386 31.0129C83.1378 30.0474 83.6766 29.2126 84.3552 28.5086C85.0338 27.8046 85.8422 27.2514 86.7802 26.8491C87.7183 26.4267 88.7162 26.2155 89.774 26.2155C90.8518 26.2155 91.8996 26.4267 92.9175 26.8491C93.9553 27.2716 94.8634 27.8549 95.6418 28.5991L94.2347 30.2284C93.636 29.6049 92.9474 29.1221 92.169 28.7802C91.3906 28.4382 90.6023 28.2672 89.8039 28.2672C89.0455 28.2672 88.327 28.4181 87.6484 28.7198C86.9698 29.0216 86.381 29.4339 85.8821 29.9569C85.4031 30.4799 85.0238 31.0934 84.7444 31.7974C84.465 32.5014 84.3253 33.2557 84.3253 34.0603C84.3253 34.8851 84.465 35.6595 84.7444 36.3836C85.0438 37.0876 85.433 37.7011 85.912 38.2241C86.411 38.727 86.9998 39.1293 87.6783 39.431C88.3569 39.7328 89.0754 39.8836 89.8339 39.8836Z" fill="#EAEAEA"/>
<path d="M108.536 39.8233C109.833 39.8233 111.071 39.5718 112.248 39.069C113.426 38.546 114.414 37.8319 115.212 36.9267L116.709 38.4957C115.671 39.5819 114.434 40.4368 112.997 41.0603C111.56 41.6638 110.053 41.9655 108.476 41.9655C106.959 41.9655 105.532 41.6839 104.195 41.1207C102.878 40.5575 101.73 39.7931 100.752 38.8276C99.7741 37.842 99.0057 36.6853 98.4469 35.3578C97.888 34.0101 97.6086 32.5819 97.6086 31.0733C97.6086 29.5647 97.888 28.1466 98.4469 26.819C99.0057 25.4713 99.7741 24.3147 100.752 23.3491C101.73 22.3635 102.878 21.5891 104.195 21.0259C105.532 20.4626 106.959 20.181 108.476 20.181C110.093 20.181 111.62 20.4928 113.057 21.1164C114.514 21.7198 115.751 22.5647 116.769 23.6509L115.242 25.2802C114.424 24.3549 113.406 23.6307 112.188 23.1078C110.991 22.5848 109.753 22.3233 108.476 22.3233C107.279 22.3233 106.151 22.5546 105.093 23.0172C104.055 23.4598 103.157 24.0733 102.399 24.8578C101.64 25.6221 101.041 26.5474 100.602 27.6336C100.163 28.6997 99.9438 29.8463 99.9438 31.0733C99.9438 32.3003 100.163 33.4569 100.602 34.5431C101.041 35.6092 101.64 36.5345 102.399 37.319C103.177 38.0833 104.085 38.6968 105.123 39.1595C106.181 39.602 107.318 39.8233 108.536 39.8233Z" fill="#EAEAEA"/>
<path d="M121.324 26.5172V35.6293C121.324 36.9569 121.703 38.0129 122.462 38.7974C123.22 39.5819 124.238 39.9741 125.515 39.9741C126.413 39.9741 127.212 39.773 127.91 39.3707C128.629 38.9483 129.208 38.3649 129.647 37.6207V26.5172H131.862V41.6336H129.647V39.8836C129.068 40.5675 128.379 41.0805 127.581 41.4224C126.803 41.7644 125.924 41.9353 124.946 41.9353C123.23 41.9353 121.833 41.3922 120.755 40.306C119.677 39.2198 119.138 37.8118 119.138 36.0819V26.5172H121.324Z" fill="#EAEAEA"/>
<path d="M137.844 20V41.6336H135.629V20.5129L137.844 20Z" fill="#EAEAEA"/>
<path d="M143.838 20V41.6336H141.623V20.5129L143.838 20Z" fill="#EAEAEA"/>
<path d="M146.927 34.0603C146.927 32.9741 147.127 31.9483 147.526 30.9828C147.925 30.0172 148.464 29.1825 149.143 28.4784C149.841 27.7744 150.66 27.2213 151.598 26.819C152.536 26.4167 153.534 26.2155 154.591 26.2155C155.649 26.2155 156.637 26.4167 157.555 26.819C158.493 27.2213 159.302 27.7744 159.98 28.4784C160.679 29.1825 161.228 30.0172 161.627 30.9828C162.026 31.9483 162.226 32.9741 162.226 34.0603C162.226 35.1667 162.026 36.2026 161.627 37.1681C161.228 38.1336 160.679 38.9684 159.98 39.6724C159.302 40.3764 158.493 40.9296 157.555 41.3319C156.637 41.7342 155.649 41.9353 154.591 41.9353C153.534 41.9353 152.536 41.7342 151.598 41.3319C150.66 40.9296 149.841 40.3764 149.143 39.6724C148.464 38.9684 147.925 38.1336 147.526 37.1681C147.127 36.2026 146.927 35.1667 146.927 34.0603ZM154.591 39.944C155.35 39.944 156.058 39.7931 156.717 39.4914C157.396 39.1897 157.974 38.7773 158.453 38.2543C158.952 37.7112 159.342 37.0876 159.621 36.3836C159.9 35.6595 160.04 34.8851 160.04 34.0603C160.04 33.2356 159.9 32.4713 159.621 31.7672C159.342 31.0431 158.952 30.4195 158.453 29.8966C157.974 29.3736 157.396 28.9612 156.717 28.6595C156.058 28.3578 155.35 28.2069 154.591 28.2069C153.833 28.2069 153.115 28.3578 152.436 28.6595C151.777 28.9612 151.199 29.3736 150.7 29.8966C150.221 30.4195 149.831 31.0431 149.532 31.7672C149.253 32.4713 149.113 33.2356 149.113 34.0603C149.113 34.8851 149.253 35.6595 149.532 36.3836C149.811 37.0876 150.191 37.7112 150.67 38.2543C151.169 38.7773 151.757 39.1897 152.436 39.4914C153.115 39.7931 153.833 39.944 154.591 39.944Z" fill="#EAEAEA"/>
<path d="M167.429 26.5172V35.6293C167.429 36.9569 167.809 38.0129 168.567 38.7974C169.326 39.5819 170.343 39.9741 171.621 39.9741C172.519 39.9741 173.317 39.773 174.016 39.3707C174.734 38.9483 175.313 38.3649 175.752 37.6207V26.5172H177.968V41.6336H175.752V39.8836C175.173 40.5675 174.485 41.0805 173.686 41.4224C172.908 41.7644 172.03 41.9353 171.052 41.9353C169.336 41.9353 167.938 41.3922 166.861 40.306C165.783 39.2198 165.244 37.8118 165.244 36.0819V26.5172H167.429Z" fill="#EAEAEA"/>
<path d="M188.531 41.7543C187.493 41.7543 186.515 41.5532 185.597 41.1509C184.698 40.7486 183.91 40.2055 183.232 39.5215C182.553 38.8175 182.014 37.9928 181.615 37.0474C181.236 36.102 181.046 35.0862 181.046 34C181.046 32.9138 181.236 31.898 181.615 30.9526C182.014 30.0072 182.553 29.1925 183.232 28.5086C183.91 27.8046 184.708 27.2514 185.627 26.8491C186.545 26.4468 187.533 26.2457 188.59 26.2457C189.449 26.2457 190.277 26.4066 191.075 26.7284C191.894 27.0302 192.642 27.4626 193.321 28.0259V26.5172H195.506V41.9957C195.506 43.9267 194.947 45.4052 193.83 46.431C192.712 47.477 191.115 48 189.039 48C188.002 48 186.974 47.8592 185.956 47.5776C184.938 47.3161 184.01 46.9339 183.172 46.431L184.13 44.681C185.028 45.1638 185.856 45.5158 186.615 45.7371C187.393 45.9583 188.171 46.069 188.95 46.069C190.367 46.069 191.444 45.727 192.183 45.0431C192.921 44.3592 193.291 43.3534 193.291 42.0259V40.0043C192.612 40.5675 191.864 41 191.045 41.3017C190.247 41.6034 189.409 41.7543 188.531 41.7543ZM183.232 34C183.232 34.8046 183.371 35.569 183.651 36.2931C183.93 36.9971 184.309 37.6106 184.788 38.1336C185.287 38.6365 185.876 39.0388 186.555 39.3405C187.233 39.6422 187.952 39.7931 188.71 39.7931C189.668 39.7931 190.546 39.6121 191.345 39.25C192.143 38.8879 192.792 38.375 193.291 37.7112V30.2888C192.792 29.6451 192.133 29.1422 191.315 28.7802C190.516 28.4181 189.648 28.2371 188.71 28.2371C187.932 28.2371 187.203 28.3879 186.525 28.6897C185.866 28.9713 185.287 29.3736 184.788 29.8966C184.309 30.4195 183.93 31.033 183.651 31.7371C183.371 32.4411 183.232 33.1954 183.232 34Z" fill="#EAEAEA"/>
<path d="M199.276 41.6336V20.5129L201.492 20V28.2974C202.071 27.6135 202.759 27.1006 203.557 26.7586C204.356 26.3966 205.244 26.2155 206.222 26.2155C207.918 26.2155 209.306 26.7586 210.383 27.8448C211.461 28.931 212 30.3391 212 32.069V41.6336H209.815V32.5216C209.815 31.194 209.435 30.1379 208.677 29.3534C207.918 28.569 206.901 28.1767 205.623 28.1767C204.725 28.1767 203.917 28.3779 203.198 28.7802C202.5 29.1825 201.931 29.7557 201.492 30.5V41.6336H199.276Z" fill="#EAEAEA"/>
</svg>
