<?xml version="1.0" encoding="UTF-8"?>
<svg width="160px" height="160px" viewBox="0 0 160 160" version="1.1" xmlns="http://www.w3.org/2000/svg" xmlns:xlink="http://www.w3.org/1999/xlink">
  <!-- Generator: Sketch 63.1 (92452) - https://sketch.com -->
  <defs>
    <radialGradient cx="50%" cy="0%" fx="50%" fy="0%" r="100%" gradientTransform="translate(0.500000,0.000000),scale(0.552588,1.000000),rotate(90.000000),translate(-0.500000,-0.000000)" id="radialGradient-1">
      <stop stop-color="#0F051B" offset="0%"></stop>
      <stop stop-color="#0F051B" stop-opacity="0.869755245" offset="100%"></stop>
    </radialGradient>
    <radialGradient cx="50%" cy="0%" fx="50%" fy="0%" r="100%" gradientTransform="translate(0.500000,0.000000),scale(0.379904,1.000000),rotate(90.000000),translate(-0.500000,-0.000000)" id="radialGradient-2">
      <stop stop-color="#0F051B" offset="0%"></stop>
      <stop stop-color="#0F051B" stop-opacity="0.869755245" offset="100%"></stop>
    </radialGradient>
    <radialGradient cx="50%" cy="0%" fx="50%" fy="0%" r="100%" gradientTransform="translate(0.500000,0.000000),scale(0.548729,1.000000),rotate(90.000000),translate(-0.500000,-0.000000)" id="radialGradient-3">
      <stop stop-color="#0F051B" offset="0%"></stop>
      <stop stop-color="#0F051B" stop-opacity="0" offset="100%"></stop>
    </radialGradient>
    <linearGradient x1="50%" y1="0%" x2="50%" y2="100%" id="linearGradient-4">
      <stop stop-color="#0F051B" offset="0%"></stop>
      <stop stop-color="#490082" offset="100%"></stop>
    </linearGradient>
  </defs>
  <g id="icon" stroke="none" stroke-width="1" fill="none" fill-rule="evenodd">
    <path
      d="M80,22.0759082 C58.0683209,22.0759082 38.2094589,25.9947011 23.835782,32.348879 C16.602161,35.5466491 10.765653,39.3555681 6.78796258,43.6007681 C3.08148772,47.5565127 1,51.8850135 1,56.4415449 C1,66.9515254 11.7158758,81.5012929 28.3575137,92.5364576 C42.2193611,101.728327 60.2654907,108.49 80,108.49 C99.7345093,108.49 117.780639,101.728327 131.642486,92.5364576 C148.284124,81.5012929 159,66.9515254 159,56.4415449 C159,51.8850135 156.918512,47.5565127 153.212037,43.6007681 C149.234347,39.3555681 143.397839,35.5466491 136.164218,32.348879 C121.790541,25.9947011 101.931679,22.0759082 80,22.0759082 Z"
      id="hat-rim-border"
      stroke="#0F051B"
      stroke-width="2"
      fill="url(#radialGradient-1)"></path>
    <path
      d="M95.8891528,10.2384268 C94.6546528,9.7142964 93.3708367,9.50511907 92.033807,9.61025972 C90.6525941,9.71887483 89.2188191,10.1593488 87.7246015,10.9162284 L86.6159957,11.4777805 C84.2483261,12.6770977 83.132389,13.0617044 81.9069801,13.2998123 C80.6194801,13.549985 79.3805199,13.549985 78.0930199,13.2998123 C76.867611,13.0617044 75.7516739,12.6770977 73.3840043,11.4777805 L72.2753985,10.9162284 C70.7811809,10.1593488 69.3474059,9.71887483 67.966193,9.61025972 C66.6291633,9.50511907 65.3453472,9.7142964 64.1108472,10.2384268 C62.8355521,10.7798774 61.6157592,11.6527079 60.4390898,12.8447659 L39.3350684,34.2247885 C37.67247,35.9091307 36.7402383,38.1805778 36.7402383,40.5472721 C36.7402383,43.0325535 37.7475976,45.2825535 39.3762773,46.9112332 C41.0049569,48.5399128 43.2549569,49.5472721 45.7402383,49.5472721 L114.259762,49.5472721 C116.626456,49.5472721 118.897903,48.6150405 120.582245,46.952442 C122.350984,45.2065364 123.244608,42.9089924 123.259572,40.6057402 C123.274535,38.3024879 122.410837,35.9935274 120.664932,34.2247885 L99.5609102,12.8447659 C98.3842408,11.6527079 97.1644479,10.7798774 95.8891528,10.2384268 Z"
      id="hat-top"
      stroke="#0F051B"
      stroke-width="2"
      fill="url(#radialGradient-2)"></path>
    <path
      d="M80,22.6933898 C58.067371,22.6933898 38.2076982,26.5849942 23.8334158,32.8950605 C16.5997812,36.0705035 10.7632676,39.8526972 6.78556667,44.0682601 C3.08122055,47.9941218 1,52.2896235 1,56.8120339 C1,67.247278 11.7167139,81.6914903 28.3548242,92.647263 C42.2173935,101.775412 60.2645172,108.49 80,108.49 C99.7354828,108.49 117.782606,101.775412 131.645176,92.647263 C148.283286,81.6914903 159,67.247278 159,56.8120339 C159,52.2896235 156.918779,47.9941218 153.214433,44.0682601 C149.236732,39.8526972 143.400219,36.0705035 136.166584,32.8950605 C121.792302,26.5849942 101.932629,22.6933898 80,22.6933898 Z"
      id="hat-rim-fill"
      stroke="#0F051B"
      stroke-width="2"
      fill="url(#radialGradient-3)"></path>
    <path
      d="M80.0359193,49.8099995 C69.7269167,49.81 52.6902395,50.4158205 45.4207832,57.1296252 C37.9345188,64.0436662 38.3438853,76.2243906 38.5922687,87.9262788 C38.638001,90.0808285 38.683392,92.2229528 38.683392,94.32 C38.683392,106.039987 44.948973,120.042163 52.9823656,131.551629 C61.7965924,144.179798 72.7751053,154 80.0369009,154 C87.2986964,154 98.2772094,144.179798 107.091436,131.551629 C115.124829,120.042163 121.39041,106.039987 121.39041,94.32 C121.39041,92.5553664 121.417148,90.7438173 121.444265,88.9091484 C121.618948,77.0908034 121.954459,64.1903165 114.636354,57.1138769 C107.4886,50.2021631 91.6033683,49.8331194 80.9558163,49.8109019 L80.0359193,49.8099995 Z"
      id="face"
      stroke="#0F051B"
      stroke-width="2"
      fill="#EAEAEA"></path>
    <path
      d="M40.625,62.1864407 C94.2371658,58.6062091 96.25,94.7966102 111.679958,94.764933 C111.951152,94.7640246 112.5,94.7966102 112.455306,94.1643782 C111.701316,83.4986775 113.654717,73.2704114 119.375,62.1864407 C105,34.5932203 63.75,28.3220339 40.625,62.1864407 Z"
      id="hair"
      fill="url(#linearGradient-4)"
      transform="translate(80.000000, 66.922540) scale(-1, 1) translate(-80.000000, -66.922540) "></path>
  </g>
</svg>
