<svg width="161" height="160" viewBox="0 0 161 160" fill="none" xmlns="http://www.w3.org/2000/svg">
<path fill-rule="evenodd" clip-rule="evenodd" d="M87.2616 16.3334C88.4835 16.1086 89.6773 16.1699 90.8466 16.5174C92.0545 16.8764 93.2334 17.5369 94.3937 18.4868L107.932 29.5703C116.021 30.2888 123.384 31.6915 129.7 33.6793C136.566 35.8401 142.187 38.688 146.127 42.1114C149.799 45.3014 152.001 48.9868 152.303 53.0824C153 62.5294 144.109 76.6645 129.535 88.2251C117.394 97.8546 101.244 105.713 83.0923 107.659C64.9404 109.606 47.8928 105.308 34.5327 98.4135C18.4934 90.1361 7.67143 78.1151 6.97403 68.6681C6.67167 64.5725 8.299 60.4765 11.4457 56.5552C14.8227 52.347 19.9384 48.3476 26.3798 44.7598C32.1469 41.5474 38.9713 38.6696 46.5746 36.2792L58.4371 22.3149C59.4397 21.1347 60.503 20.2355 61.6393 19.627C62.7393 19.0379 63.9054 18.7253 65.1412 18.6885C66.4178 18.6503 67.7648 18.9036 69.1882 19.4336L70.2442 19.8269C72.4997 20.6668 73.5508 20.9012 74.6928 20.9941C75.8927 21.0916 77.0315 20.9704 78.1982 20.6209C79.3087 20.2882 80.3089 19.8354 82.4057 18.5321L83.3874 17.9219C84.7107 17.0994 85.9993 16.5656 87.2616 16.3334Z" fill="url(#paint0_radial)"/>
<path fill-rule="evenodd" clip-rule="evenodd" d="M77.254 31.0725C57.1222 33.3771 39.1647 38.9146 26.4111 46.0203C19.9931 49.5962 14.8998 53.5632 11.5429 57.7193C8.41676 61.5897 6.80626 65.6173 7.12194 69.6275C7.85037 78.8808 18.6954 90.5629 34.7322 98.5295C48.0938 105.167 65.1279 109.225 83.243 107.151C101.358 105.077 117.455 97.2271 129.542 87.6763C144.049 76.2132 152.878 62.279 152.149 53.0257C151.834 49.0155 149.624 45.4253 145.949 42.3333C142.004 39.0132 136.383 36.2727 129.521 34.217C115.887 30.132 97.3859 28.7679 77.254 31.0725Z" fill="url(#paint1_radial)"/>
<path fill-rule="evenodd" clip-rule="evenodd" d="M77.254 31.0725C57.1222 33.3771 39.1647 38.9146 26.4111 46.0203C19.9931 49.5962 14.8998 53.5632 11.5429 57.7193C8.41676 61.5897 6.80626 65.6173 7.12194 69.6275C7.85037 78.8808 18.6954 90.5629 34.7322 98.5295C48.0938 105.167 65.1279 109.225 83.243 107.151C101.358 105.077 117.455 97.2271 129.542 87.6763C144.049 76.2132 152.878 62.279 152.149 53.0257C151.834 49.0155 149.624 45.4253 145.949 42.3333C142.004 39.0132 136.383 36.2727 129.521 34.217C115.887 30.132 97.3859 28.7679 77.254 31.0725Z" fill="url(#paint2_radial)"/>
<path d="M47.1241 36.8637L58.1623 23.8209C59.1515 22.6521 60.2029 21.7571 61.3289 21.1452C62.4188 20.5529 63.5763 20.23 64.805 20.1756C66.0743 20.1194 67.4154 20.3471 68.8344 20.8442L69.8871 21.2131C72.1356 22.0008 73.1824 22.2144 74.3187 22.2882C75.5126 22.3658 76.6441 22.2304 77.8021 21.8713C78.9042 21.5296 79.8958 21.072 81.9723 19.7667L82.9445 19.1555C84.2549 18.3317 85.5328 17.7906 86.7866 17.5448C88.0002 17.3069 89.1877 17.3491 90.3528 17.6716C91.5564 18.0046 92.7331 18.6329 93.8932 19.5445L106.761 29.6549M77.1927 30.7071C57.1371 33.1142 39.2585 38.7303 26.5708 45.8799C20.1857 49.478 15.1221 53.4586 11.7897 57.6178C8.68445 61.4934 7.092 65.5175 7.41936 69.5132C8.17444 78.7294 19.019 90.3119 35.0299 98.1621C48.3664 104.701 65.3547 108.65 83.4011 106.484C101.448 104.318 117.464 96.4075 129.48 86.8257C143.905 75.3224 152.659 61.3876 151.904 52.1714C151.577 48.1758 149.362 44.6086 145.689 41.5466C141.746 38.2606 136.135 35.5611 129.291 33.551C115.69 29.5566 97.2483 28.2999 77.1927 30.7071ZM77.2417 31.2646C57.1863 33.6714 39.306 39.2627 26.6154 46.3724C20.229 49.9502 15.1638 53.9066 11.8294 58.039C8.72412 61.8875 7.12962 65.8818 7.45451 69.8468C8.20417 78.9956 19.0413 90.4832 35.0424 98.2626C48.3742 104.744 65.359 108.651 83.4053 106.485C101.452 104.319 117.472 96.4517 129.492 86.9275C143.919 75.4965 152.681 61.6568 151.931 52.5079C151.606 48.543 149.394 45.0054 145.725 41.97C141.785 38.7106 136.176 36.0351 129.334 34.045C115.736 30.0902 97.2971 28.8577 77.2417 31.2646Z" stroke="#0F051B" stroke-width="2"/>
<path fill-rule="evenodd" clip-rule="evenodd" d="M79.4057 55.7451C69.897 56.9002 54.2251 59.3604 47.9871 66.284C41.5631 73.4141 42.7882 84.4519 43.8314 95.0719C44.0235 97.0273 44.2144 98.9714 44.3603 100.88C45.1757 111.544 51.9291 123.583 60.1396 133.156C69.1481 143.659 79.9575 151.364 86.6555 150.551C93.3536 149.737 102.797 139.571 110.048 127.093C116.657 115.72 121.462 102.277 120.646 91.6125C120.524 90.0068 120.422 88.3554 120.32 86.683C119.658 75.9095 119.07 64.1333 111.828 58.5142C104.754 53.0259 90.0767 54.47 80.2542 55.6428L79.4057 55.7451Z" fill="#EAEAEA" stroke="#0F051B" stroke-width="2"/>
<path fill-rule="evenodd" clip-rule="evenodd" d="M116.219 61.8714C66.6933 64.55 67.3468 97.0103 53.1621 98.6709C52.9127 98.6998 52.4105 98.7889 52.4079 98.2208C52.3631 88.6368 49.8428 79.5768 43.8182 70.3288C51.4449 44.6037 100.993 37.519 116.219 61.8714Z" fill="url(#paint3_linear)"/>
<defs>
<radialGradient id="paint0_radial" cx="0" cy="0" r="1" gradientUnits="userSpaceOnUse" gradientTransform="translate(3.99217 87.2083) rotate(86.3934) scale(77.9582 14.013)">
<stop stop-color="#0F051B"/>
<stop offset="1" stop-color="#0F051B" stop-opacity="0.869755"/>
</radialGradient>
<radialGradient id="paint1_radial" cx="0" cy="0" r="1" gradientUnits="userSpaceOnUse" gradientTransform="translate(89.6311 76.5307) rotate(22.1973) scale(228.403 68.6694)">
<stop stop-color="#0F051B"/>
<stop offset="1" stop-color="#0F051B" stop-opacity="0"/>
</radialGradient>
<radialGradient id="paint2_radial" cx="0" cy="0" r="1" gradientUnits="userSpaceOnUse" gradientTransform="translate(89.6311 76.5307) rotate(22.1973) scale(228.403 68.6694)">
<stop stop-color="#0F051B"/>
<stop offset="1" stop-color="#0F051B" stop-opacity="0"/>
</radialGradient>
<linearGradient id="paint3_linear" x1="78.4286" y1="45.5971" x2="84.3071" y2="94.9622" gradientUnits="userSpaceOnUse">
<stop stop-color="#0F051B"/>
<stop offset="1" stop-color="#490082"/>
</linearGradient>
</defs>
</svg>
